<svg viewBox="0 0 88 96" fill="none" xmlns="http://www.w3.org/2000/svg">
  <!-- Dark (right) lane -->
  <path d="M28 84 C28 60 68 62 68 44 C68 24 28 22 62 6"
        stroke="#1C1C2E" stroke-width="14" stroke-linecap="round" fill="none"/>
  <!-- Blue (left) lane -->
  <path d="M12 84 C12 60 52 62 52 44 C52 24 12 22 46 6"
        stroke="#5B8FD9" stroke-width="14" stroke-linecap="round" fill="none"/>
  <!-- White center divider -->
  <path d="M20 84 C20 60 60 62 60 44 C60 24 20 22 54 6"
        stroke="white" stroke-width="3" stroke-linecap="round" fill="none"/>

  <!-- Blue map pin (bottom-left, larger) -->
  <circle cx="12" cy="73" r="11" fill="#5B8FD9"/>
  <circle cx="12" cy="73" r="4.5" fill="white"/>
  <path d="M5 81 L19 81 L12 90 Z" fill="#5B8FD9"/>

  <!-- Red map pin (upper-right, smaller) -->
  <circle cx="62" cy="10" r="9" fill="#E53935"/>
  <circle cx="62" cy="10" r="3.5" fill="white"/>
  <path d="M56 17 L68 17 L62 24 Z" fill="#E53935"/>
</svg>
