<svg viewBox="0 0 170 215" xmlns="http://www.w3.org/2000/svg">
  <!-- Темна смуга (права) -->
  <path d="M100 5C126 5 135 50 121 97C107 144 107 188 121 205" stroke="#1A1A2E" stroke-width="42" stroke-linecap="round" fill="none"/>
  <!-- Синя смуга (ліва) -->
  <path d="M58 5C84 5 93 50 79 97C65 144 65 188 79 205" stroke="#5B8FD9" stroke-width="42" stroke-linecap="round" fill="none"/>
  <!-- Біла розділова лінія -->
  <path d="M79 5C105 5 114 50 100 97C86 144 86 188 100 205" stroke="white" stroke-width="5" stroke-linecap="round" fill="none"/>
  <!-- Червоний пін (старт, зверху) -->
  <path d="M58 2C41 2 28 16 28 33C28 51 58 79 58 79C58 79 88 51 88 33C88 16 75 2 58 2Z" fill="#E53935"/>
  <circle cx="58" cy="31" r="13" fill="white"/>
  <circle cx="58" cy="31" r="5.5" fill="#CC1111"/>
  <!-- Синій пін (призначення, знизу) -->
  <path d="M103 143C91 143 80 153 80 165C80 178 103 201 103 201C103 201 126 178 126 165C126 153 115 143 103 143Z" fill="#5B8FD9"/>
  <circle cx="103" cy="163" r="11" fill="white"/>
  <circle cx="103" cy="163" r="4.5" fill="#3A6BBF"/>
</svg>